<svg version="1.1" id="Capa_1" xmlns="http://www.w3.org/2000/svg" xmlns:xlink="http://www.w3.org/1999/xlink" x="0px" y="0px"
viewBox="0 0 415.9 323.3" style="enable-background:new 0 0 415.9 323.3;" xml:space="preserve">
<style type="text/css">
.st0{fill:#fff;}
</style>
<path class="st0" d="M65.8,197.6L65.8,197.6l4,0.6L65.8,197.6z M306.9,39.8l-1.3-1.9c-0.5,0.2-1,0.4-1.6,0.6l11,14.9
c0.3-0.3,0.6-0.5,0.8-0.7L306.9,39.8z M401.2,13c-5.1,0.3-10.6,0.8-16.4,1.6c3.5-0.1,7-0.2,10.4-0.3c-0.1,0.1-0.1,0.2-0.1,0.3
C397.2,14.1,399.2,13.5,401.2,13z"/>
<path class="st0" d="M345.5,7.7c-12.3,1.2-24.9,2.7-38.7,5l-1.4,0.2l-12.7,2.5v-0.1l-4,0.9l-0.9,0.2l0.1,0.1
c-10.6,2.7-19.7,6.4-29.2,12.2c-6.7,4-16.2,11.6-26.9,20.6c-32.5,27.7-75.5,69.8-78.6,71.1l-1.5,0.1l-64.6,5.6l-11.7,1l-14.9,1.3
L4,188l61.8,9.6l4,0.6l-4-0.6c1.6,4.4,3.5,8.6,5.6,12.7l-30.2,3.1l34.3,49.3l9.4,13.6l2.3-4.5L99,248.1c3.1,3.1,6.4,6,9.8,8.8
l-13,63.2l56-23.8l19.5-8.3l40-84.1l20.6-10.6l56.9-29.3l9.9-5.1c2.8-1.5,5.5-2.9,8.2-4.4c15.6-8.4,28-16.6,38.7-28
c3.6-3.8,6.9-7.9,10.2-12.6l0.1,0.1l2.7-4.2l6.7-11c16.8-29.3,29.1-56.2,41.1-87.7l2.4-6.3C385.5,5.2,365.9,5.8,345.5,7.7z
M22.7,181.6l42.1-44.3l10.7-0.9l11.7-0.9l54.7-4.5l-54.7,49.7l-8.7,7.9l-3-0.4L22.7,181.6z M74.5,245.2L57.6,221l17.9-1.8l3.8-0.4
l7.9,11.4l1.9,2.8L74.5,245.2z M87.1,251.3l-3.6,7.1l-4.5-6.5l12-16l2.1,3.1L87.1,251.3z M164.5,281l-12.8,5.5L108.2,305l10.8-53.7
l32.7-16.8l43.5-22.5L164.5,281z M345.5,112.4c-10.5,13.8-22.8,22.9-38.7,31.8c-3.9,2.2-8.1,4.4-12.4,6.6l-5.6,2.9L231.9,183
l-80.1,41.3l-38.8,20l-25.8-37.1l-6.2-8.8l6.2-5.5l64.6-58.8l80.1-72.8l0.3-0.3c19.3-17.5,34.5-29.2,56.7-35.3L307,51.6l38.7,55.8
l1.8,2.5C346.7,110.9,346.1,111.7,345.5,112.4z M395.1,14.6c-12.1,31-26.5,61.2-43.4,89.9l-6.2-8.9l-29.7-42.9
c-0.3,0.3-0.6,0.5-0.8,0.7l-11-14.9c0.5-0.3,1-0.5,1.6-0.6L296,24.1c3.5-0.6,7.2-1.2,10.9-1.8c12.4-1.9,25.6-3.6,38.7-4.9
c13.4-1.4,26.7-2.3,39.3-2.8c5.8-0.8,11.2-1.3,16.4-1.6C399.2,13.5,397.2,14.1,395.1,14.6z"/>
<path class="st0" d="M235.6,107.3c-1.2-0.2-2.5-0.3-3.7-0.3c-9.9,0-18.7,7.1-20.5,17.1c0,0-1.9,8,3.4,15.6s13.4,8.6,13.4,8.6
c1.2,0.2,2.5,0.3,3.7,0.3c9.9,0,18.7-7.1,20.5-17.1c0,0,1.9-8-3.4-15.5C243.7,108.3,235.6,107.3,235.6,107.3z M243.3,129.8
L243.3,129.8c-1,5.6-5.9,9.6-11.4,9.5c-0.7,0-1.4-0.1-2.1-0.2l0,0c-6.3-1.1-10.5-7.2-9.4-13.5l0,0c1-5.6,5.9-9.5,11.4-9.5
c0.7,0,1.4,0.1,2.1,0.2l0,0C240.2,117.5,244.4,123.5,243.3,129.8z"/>
<path class="st0" d="M306.8,65.6c-3.8-3-8.3-5-13-5.9l0,0c-1.7-0.3-3.4-0.5-5.1-0.5c-13.9-0.1-26.2,9.8-28.7,23.9l0,0
c-3.4,19,11.9,34.3,28.7,34.3c5.5,0,11.2-1.6,16.5-5.3c0.5-0.4,1.1-0.8,1.6-1.2c11.9-9.5,14.5-26.6,5.7-39.3
C310.9,69.4,309,67.3,306.8,65.6z M306.8,96.5c-1.4,3.1-3.6,5.9-6.8,8.1c-3.6,2.5-7.5,3.6-11.2,3.6c-11.5,0-22-10.4-19.7-23.5l0,0
c1.7-9.6,10.2-16.4,19.7-16.4c1.1,0,2.3,0.1,3.4,0.3l0,0c7.1,1.3,12.2,5.9,14.6,11.5C309,85.4,309.2,91.3,306.8,96.5z"/>
</svg>